<svg xmlns="http://www.w3.org/2000/svg" width="29.366" height="22.025" viewBox="0 0 29.366 22.025">
  <path id="envelope" d="M26.613,59.882H2.753A2.756,2.756,0,0,0,0,62.635V79.154a2.756,2.756,0,0,0,2.753,2.753h23.86a2.756,2.756,0,0,0,2.753-2.753V62.635A2.756,2.756,0,0,0,26.613,59.882Zm0,1.835a.912.912,0,0,1,.352.071L14.683,72.433,2.4,61.788a.913.913,0,0,1,.352-.071Zm0,18.354H2.753a.918.918,0,0,1-.918-.918V63.728L14.082,74.341a.919.919,0,0,0,1.2,0L27.531,63.728V79.154A.918.918,0,0,1,26.613,80.071Z" transform="translate(0 -59.882)"/>
</svg>
